# xmcd
#
# Track frame offsets: 
#        200
#        22622
#        38460
#        50970
#        66130
#        89202
#        107175
#        127020
#        139675
#        157432
#
# Disc length: 2337 seconds
#
# Revision: 1
# Processed by: cddbd v1.5.2PL0 Copyright (c) Steve Scherf et al.
# Submitted via: ExactAudioCopy v1.1
#
DISCID=90091f0a
DTITLE=Tamas Szekeres - Guitarmania
DYEAR=1992
DGENRE=Hard Rock - Instrumental
TTITLE0=Warning To Call
TTITLE1=Children Of Rock
TTITLE2=Outline
TTITLE3=Message Of Dreamland
TTITLE4=The Final Frontier
TTITLE5=The King IN Yellow
TTITLE6=Baby Blue
TTITLE7=Prelude and Presto BWV 996
TTITLE8=Guitarmania
TTITLE9=Adagio
EXTD=
EXTT0=
EXTT1=
EXTT2=
EXTT3=
EXTT4=
EXTT5=
EXTT6=
EXTT7=
EXTT8=
EXTT9=
PLAYORDER=
